# xmcd
#
# Track frame offsets:
#	150
#	12750
#	26072
#	36875
#	48875
#	59925
#	84430
#	93212
#	105162
#	119075
#
# Disc length: 1744
#
# Revision: 1
# Processed by: cddbd v1.5.1PL0 Copyright (c) Steve Scherf et al.
# Submitted via: EasyCDDAExtractor 5.0.5.1
# Normalized: r0:DSETVAR1
#
DISCID=7906ce0a
DTITLE=Various Artist - Shades Of Blues (Disk III)
DYEAR=1998
DGENRE=Blues
TTITLE0=John Lee Hooker - Hobo Blues_John Lee Hooker
TTITLE1=Dinah Washington - Chewin' Mama Blues_Dinah Washington
TTITLE2=Billy Holiday - Nobody's Business_Billy Holiday
TTITLE3=Lightnin' Hopkins - Have You Ever Loved A Woman_Lightnin' Hopkins
TTITLE4=B.B. King - Catfish Blues_B.B. King
TTITLE5=Lightnin' Hopkins - Walk A Long Time_Lightnin' Hopkins
TTITLE6=Billie Holiday - Please Don't Talk About Me When I'm Gone_Billie Holiday
TTITLE7=John Lee Hooker - Crawlin' King Snake_John Lee Hooker
TTITLE8=Eddie "Clean Head" Vinson - Sugar_Eddie "Clean Head" Vinson
TTITLE9=Elmore James - Rollin' And Tumblin'_Elmore James
EXTD=YEAR: 1998 ID3G: 0
EXTT0=
EXTT1=
EXTT2=
EXTT3=
EXTT4=
EXTT5=
EXTT6=
EXTT7=
EXTT8=
EXTT9=
PLAYORDER=
